<?xml version="1.0" standalone="no"?>
<!DOCTYPE svg PUBLIC "-//W3C//DTD SVG 20010904//EN"
 "http://www.w3.org/TR/2001/REC-SVG-20010904/DTD/svg10.dtd">
<svg version="1.0" xmlns="http://www.w3.org/2000/svg"
 width="512.000000pt" height="512.000000pt" viewBox="0 0 512.000000 512.000000"
 preserveAspectRatio="xMidYMid meet">
<metadata>
Created by potrace 1.16, written by Peter Selinger 2001-2019
</metadata>
<g transform="translate(0.000000,512.000000) scale(0.100000,-0.100000)"
fill="#000000" stroke="none">
<path d="M1305 5062 c-27 -32 -84 -88 -126 -127 -42 -38 -117 -113 -165 -165
-66 -71 -43 -51 91 77 232 221 283 273 265 272 -8 0 -37 -26 -65 -57z"/>
<path d="M2420 5083 c0 -43 5 -41 13 5 4 18 2 32 -3 32 -6 0 -10 -16 -10 -37z"/>
<path d="M4066 5098 c-3 -13 -21 -48 -41 -78 -19 -30 -35 -59 -35 -65 0 -5 21
22 46 60 66 103 67 105 50 105 -7 0 -16 -10 -20 -22z"/>
<path d="M4450 5111 c0 -5 7 -14 15 -21 24 -20 29 -74 9 -111 -9 -19 -89 -108
-178 -199 -140 -144 -134 -138 47 40 114 113 207 212 207 222 0 9 -17 30 -37
47 -37 30 -63 40 -63 22z"/>
<path d="M4777 5099 l21 -22 28 22 27 21 -49 0 -48 0 21 -21z"/>
<path d="M4681 5074 c-37 -47 -22 -62 19 -19 17 18 21 28 13 36 -7 7 -17 2
-32 -17z"/>
<path d="M481 4993 c4 -36 5 -73 4 -82 -2 -9 -4 -20 -4 -24 -1 -4 -10 -11 -21
-15 -17 -6 -13 -10 25 -24 25 -10 43 -13 40 -7 -4 5 0 20 9 33 14 22 13 30
-17 105 -18 44 -34 81 -38 81 -3 0 -2 -30 2 -67z"/>
<path d="M4879 5037 l-26 -23 39 -28 c21 -15 38 -22 38 -16 0 6 5 8 10 5 6 -4
8 -10 6 -14 -5 -7 25 -33 61 -54 6 -4 -9 29 -34 73 -25 44 -50 80 -57 80 -6 0
-23 -11 -37 -23z"/>
<path d="M4756 5032 c-3 -6 -15 -8 -26 -5 -14 4 -20 0 -20 -11 0 -23 30 -33
44 -14 6 8 18 13 26 11 9 -3 11 -1 5 4 -5 4 -13 12 -16 16 -4 5 -10 4 -13 -1z"/>
<path d="M2411 5004 c0 -11 3 -14 6 -6 3 7 2 16 -1 19 -3 4 -6 -2 -5 -13z"/>
<path d="M15 4980 c-28 -31 -35 -29 230 -96 82 -22 81 -21 100 -23 22 -2 64
-53 71 -86 3 -19 -2 -47 -14 -76 -26 -60 -154 -254 -274 -415 -25 -34 -52 -72
-58 -85 -7 -13 -26 -41 -42 -61 -20 -26 -28 -46 -26 -65 3 -27 5 -25 51 37 75
101 457 675 457 687 0 6 -37 26 -82 44 -46 18 -152 61 -236 96 -84 35 -154 63
-156 63 -2 0 -11 -9 -21 -20z"/>
<path d="M4647 4972 c-15 -16 -32 -92 -21 -92 3 0 25 16 49 37 l44 36 -24 19
c-28 22 -28 22 -48 0z"/>
<path d="M4840 4972 c0 -5 12 -14 26 -20 14 -7 23 -8 19 -2 -9 15 -45 32 -45
22z"/>
<path d="M2401 4944 c0 -11 3 -14 6 -6 3 7 2 16 -1 19 -3 4 -6 -2 -5 -13z"/>
<path d="M1800 4913 c0 -47 4 -53 19 -25 6 12 5 25 -5 42 -13 24 -13 24 -14
-17z"/>
<path d="M4559 4913 c-13 -16 -12 -17 4 -4 16 13 21 21 13 21 -2 0 -10 -8 -17
-17z"/>
<path d="M2392 4890 c0 -14 2 -19 5 -12 2 6 2 18 0 25 -3 6 -5 1 -5 -13z"/>
<path d="M3920 4876 c0 -19 -3 -43 -6 -53 -3 -10 3 -4 15 12 25 35 27 61 6 69
-12 4 -15 -2 -15 -28z"/>
<path d="M4977 4871 c38 -35 65 -91 68 -139 3 -40 -4 -64 -41 -143 -25 -51
-57 -107 -72 -123 l-27 -30 25 15 c17 10 49 62 96 159 91 185 90 183 60 204
l-25 16 15 -35 c16 -40 17 -45 5 -45 -5 0 -18 22 -30 49 -11 27 -34 59 -50 70
-37 26 -51 27 -24 2z"/>
<path d="M2382 4830 c0 -14 2 -19 5 -12 2 6 2 18 0 25 -3 6 -5 1 -5 -13z"/>
<path d="M1201 4816 l-20 -21 30 -1 c33 -1 69 -29 69 -53 1 -13 3 -13 15 3 19
25 19 36 -1 36 -8 0 -28 13 -44 29 l-29 28 -20 -21z"/>
<path d="M4355 4768 c-39 -39 -61 -65 -50 -57 32 22 134 129 124 129 -3 0 -36
-32 -74 -72z"/>
<path d="M2371 4780 c0 -14 -10 -43 -20 -63 -12 -24 -14 -34 -6 -27 18 15 38
75 32 97 -3 12 -5 10 -6 -7z"/>
<path d="M579 4738 l-23 -32 24 17 c13 9 43 17 65 18 l40 1 -35 13 c-48 18
-46 19 -71 -17z"/>
<path d="M740 4754 c0 -7 52 -25 57 -20 2 2 -10 8 -26 14 -17 6 -31 9 -31 6z"/>
<path d="M730 4720 c8 -5 20 -10 25 -10 6 0 3 5 -5 10 -8 5 -19 10 -25 10 -5
0 -3 -5 5 -10z"/>
<path d="M810 4691 c0 -5 9 -16 20 -26 17 -16 18 -20 5 -44 -16 -32 -10 -26
-271 -282 -109 -107 -212 -205 -229 -217 -27 -20 -27 -22 -8 -20 24 3 588 546
578 556 -11 12 -95 40 -95 33z"/>
<path d="M3472 4668 c3 -7 13 -15 24 -17 16 -3 17 -1 5 13 -16 19 -34 21 -29
4z"/>
<path d="M972 4593 c-23 -23 -25 -26 -6 -9 28 24 38 28 71 22 37 -6 37 -6 13
8 -35 21 -36 21 -78 -21z"/>
<path d="M1611 4614 c0 -11 3 -14 6 -6 3 7 2 16 -1 19 -3 4 -6 -2 -5 -13z"/>
<path d="M3570 4600 c8 -5 20 -10 25 -10 6 0 3 5 -5 10 -8 5 -19 10 -25 10 -5
0 -3 -5 5 -10z"/>
<path d="M3840 4591 c0 -8 34 -21 55 -21 11 1 -35 29 -47 30 -5 0 -8 -4 -8 -9z"/>
<path d="M1135 4570 c3 -5 8 -10 11 -10 2 0 4 5 4 10 0 6 -5 10 -11 10 -5 0
-7 -4 -4 -10z"/>
<path d="M4156 4569 c-8 -25 -13 -119 -6 -119 8 0 22 121 15 128 -2 3 -7 -1
-9 -9z"/>
<path d="M5086 4559 c-15 -11 -33 -19 -40 -16 -10 4 -19 -7 -29 -31 -8 -20
-13 -39 -11 -42 3 -2 30 22 62 53 58 58 66 74 18 36z"/>
<path d="M1610 4550 c-7 -20 -8 -50 -1 -82 6 -26 5 -41 -5 -52 -9 -10 -6 -9 6
2 18 16 19 24 11 77 -5 33 -9 58 -11 55z"/>
<path d="M4008 4533 c6 -2 18 -2 25 0 6 3 1 5 -13 5 -14 0 -19 -2 -12 -5z"/>
<path d="M4945 4421 c-20 -11 -29 -22 -27 -34 2 -11 -7 -31 -20 -45 l-23 -27
24 20 c28 24 85 95 80 99 -2 2 -18 -4 -34 -13z"/>
<path d="M1497 4389 c16 -32 25 -36 41 -16 7 9 1 16 -23 29 l-33 16 15 -29z"/>
<path d="M2533 4413 c26 -2 47 -9 47 -14 0 -6 4 -8 9 -5 5 4 21 2 35 -4 16 -6
26 -6 26 0 0 19 -40 30 -102 28 -56 -1 -58 -2 -15 -5z"/>
<path d="M2690 4410 c-11 -7 -1 -10 35 -10 53 0 208 -23 263 -39 18 -5 30 -6
27 -1 -7 12 -125 37 -210 45 -38 4 -77 8 -85 11 -8 2 -22 -1 -30 -6z"/>
<path d="M2661 4284 c0 -11 3 -14 6 -6 3 7 2 16 -1 19 -3 4 -6 -2 -5 -13z"/>
<path d="M1630 4129 c-22 -18 -22 -19 -3 -10 12 6 25 16 28 21 9 15 3 12 -25
-11z"/>
<path d="M3430 4130 c0 -11 5 -18 10 -15 6 3 10 -1 10 -9 0 -9 7 -16 16 -16 8
0 28 -12 43 -27 15 -16 62 -59 105 -97 87 -77 305 -325 337 -383 12 -21 25
-43 30 -49 5 -6 22 -37 39 -70 16 -32 30 -53 30 -46 0 31 -64 146 -135 242
-75 101 -323 358 -432 449 -48 38 -53 41 -53 21z"/>
<path d="M126 4070 c-23 -35 -24 -39 -6 -28 17 11 23 9 46 -13 25 -26 25 -27
10 -58 -9 -17 -53 -71 -96 -120 -44 -49 -80 -93 -80 -97 0 -5 64 53 142 128
79 75 141 138 138 141 -38 32 -114 87 -120 87 -4 0 -19 -18 -34 -40z"/>
<path d="M1610 4096 c0 -2 8 -10 18 -17 15 -13 16 -12 3 4 -13 16 -21 21 -21
13z"/>
<path d="M1418 3963 c-66 -65 -150 -156 -186 -203 -36 -47 -88 -109 -114 -139
-27 -29 -47 -56 -44 -59 3 -2 -1 -20 -9 -39 -24 -57 -18 -51 41 43 108 173
236 322 398 462 33 29 54 52 48 52 -7 0 -67 -53 -134 -117z"/>
<path d="M3785 3950 c33 -33 62 -60 64 -60 3 0 -21 27 -54 60 -33 33 -62 60
-64 60 -3 0 21 -27 54 -60z"/>
<path d="M292 3913 c-21 -21 -33 -35 -28 -30 28 21 59 4 136 -72 68 -67 80
-83 80 -112 l1 -34 19 35 c11 19 19 40 20 45 0 14 -169 205 -181 205 -6 0 -27
-17 -47 -37z"/>
<path d="M3960 3948 c0 -4 39 -54 86 -110 133 -158 230 -312 309 -492 47 -106
55 -92 10 16 -48 114 -126 248 -213 366 -71 96 -191 234 -192 220z"/>
<path d="M2175 3910 c-3 -6 -23 -19 -43 -29 l-36 -18 32 -17 c40 -21 45 -20
30 4 -10 16 -9 23 12 45 13 14 21 25 17 25 -3 0 -9 -5 -12 -10z"/>
<path d="M4906 3907 c3 -10 9 -15 12 -12 3 3 0 11 -7 18 -10 9 -11 8 -5 -6z"/>
<path d="M2255 3865 c-11 -9 -14 -14 -7 -10 8 4 12 -5 13 -32 0 -35 1 -36 10
-13 5 13 9 35 7 48 -3 22 -4 22 -23 7z"/>
<path d="M4919 3863 c-1 -5 -1 -12 0 -17 1 -5 -5 -6 -13 -3 -9 4 -18 2 -20 -2
-3 -5 4 -8 16 -7 12 1 22 9 24 19 1 9 0 17 -2 17 -2 0 -5 -3 -5 -7z"/>
<path d="M2750 3856 c0 -2 9 -6 20 -9 11 -3 18 -1 14 4 -5 9 -34 13 -34 5z"/>
<path d="M565 3830 c4 -6 11 -8 16 -5 14 9 11 15 -7 15 -8 0 -12 -5 -9 -10z"/>
<path d="M2242 3765 c-11 -12 -10 -15 3 -15 8 0 15 7 15 15 0 18 -2 18 -18 0z"/>
<path d="M517 3696 c-10 -22 -12 -36 -6 -38 6 -2 19 -42 29 -88 17 -82 42
-181 46 -188 2 -2 11 -1 22 2 19 7 19 8 2 54 -10 26 -25 98 -34 160 -20 147
-29 161 -59 98z"/>
<path d="M2221 3713 c1 -10 5 -29 9 -43 l8 -25 1 27 c1 14 4 33 7 42 4 11 1
16 -10 16 -9 0 -16 -8 -15 -17z"/>
<path d="M3200 3726 c0 -3 14 -12 30 -21 17 -9 30 -13 30 -11 0 3 -13 12 -30
21 -16 9 -30 13 -30 11z"/>
<path d="M3294 3672 c10 -16 138 -104 143 -98 3 2 -30 28 -73 56 -42 29 -74
48 -70 42z"/>
<path d="M867 3650 c-3 -11 -3 -20 -1 -20 2 0 8 9 14 20 6 11 7 20 2 20 -6 0
-12 -9 -15 -20z"/>
<path d="M2221 3628 c0 -9 -8 -24 -17 -32 -14 -15 -14 -16 1 -16 18 0 29 21
22 47 -4 15 -5 16 -6 1z"/>
<path d="M1596 3593 c-6 -14 -5 -15 5 -6 7 7 10 15 7 18 -3 3 -9 -2 -12 -12z"/>
<path d="M2559 3539 c-23 -19 -23 -20 -2 -10 12 6 25 16 28 21 10 16 -1 12
-26 -11z"/>
<path d="M2620 3552 c0 -5 6 -9 13 -9 25 0 133 -36 179 -59 83 -42 117 -79
124 -135 10 -75 16 -51 8 30 l-7 71 -46 21 c-53 24 -243 89 -260 89 -6 0 -11
-4 -11 -8z"/>
<path d="M3475 3540 c10 -11 20 -20 23 -20 3 0 -3 9 -13 20 -10 11 -20 20 -23
20 -3 0 3 -9 13 -20z"/>
<path d="M2190 3542 c0 -5 7 -17 15 -28 14 -19 14 -19 15 2 0 12 -7 24 -15 28
-8 3 -15 2 -15 -2z"/>
<path d="M1518 3530 c25 -10 29 -44 10 -70 -7 -9 2 0 19 19 18 20 33 39 33 42
0 8 -38 19 -65 18 -18 0 -18 -1 3 -9z"/>
<path d="M1288 3511 c39 -25 40 -37 7 -81 -14 -19 -25 -36 -25 -39 0 -7 99
103 100 110 0 4 -13 9 -29 12 -16 3 -42 9 -57 12 l-29 7 33 -21z"/>
<path d="M1492 3498 c7 -15 15 -23 17 -17 2 6 -4 18 -13 27 -15 15 -15 15 -4
-10z"/>
<path d="M3575 3450 c33 -33 62 -60 64 -60 3 0 -21 27 -54 60 -33 33 -62 60
-64 60 -3 0 21 -27 54 -60z"/>
<path d="M1143 3483 c4 -3 1 -13 -5 -22 -8 -10 -4 -9 10 3 26 23 27 26 5 26
-9 0 -13 -3 -10 -7z"/>
<path d="M1565 3440 c-16 -16 -24 -30 -19 -30 6 0 20 14 32 30 13 17 21 30 19
30 -2 0 -16 -13 -32 -30z"/>
<path d="M1728 3433 l-17 -35 29 27 c16 16 27 32 24 37 -10 15 -19 8 -36 -29z"/>
<path d="M1457 3418 c-51 -64 -84 -115 -65 -100 10 8 21 11 26 8 13 -8 54 53
48 71 -4 10 3 26 15 40 13 12 20 23 16 23 -3 0 -21 -19 -40 -42z"/>
<path d="M2197 3441 c-4 -17 -3 -21 5 -13 5 5 8 16 6 23 -3 8 -7 3 -11 -10z"/>
<path d="M1764 3418 c-14 -16 -14 -19 -2 -10 13 11 20 11 37 0 30 -18 34 -38
14 -62 -10 -12 -1 -5 20 13 20 19 37 36 37 38 0 3 -77 43 -83 43 -2 0 -12 -10
-23 -22z"/>
<path d="M2960 3427 c0 -7 15 -27 34 -45 23 -22 39 -49 50 -89 l15 -58 -5 55
c-3 30 -13 70 -21 88 -17 35 -73 74 -73 49z"/>
<path d="M705 3400 c3 -5 8 -10 11 -10 2 0 4 5 4 10 0 6 -5 10 -11 10 -5 0 -7
-4 -4 -10z"/>
<path d="M2202 3360 c0 -25 3 -54 8 -65 8 -18 9 -18 9 5 0 14 -4 43 -8 65 l-9
40 0 -45z"/>
<path d="M330 3380 c0 -6 -15 -17 -32 -25 l-33 -14 38 -1 c33 0 37 3 37 25 0
14 -2 25 -5 25 -3 0 -5 -5 -5 -10z"/>
<path d="M3072 3374 c2 -10 12 -20 23 -22 28 -6 151 -88 173 -117 19 -24 20
-24 36 -6 16 17 15 19 -15 31 -17 8 -70 38 -118 68 -47 29 -90 56 -94 59 -5 3
-7 -3 -5 -13z"/>
<path d="M3660 3355 c13 -14 26 -25 28 -25 3 0 -5 11 -18 25 -13 14 -26 25
-28 25 -3 0 5 -11 18 -25z"/>
<path d="M4061 3354 c0 -11 3 -14 6 -6 3 7 2 16 -1 19 -3 4 -6 -2 -5 -13z"/>
<path d="M228 3333 c7 -3 16 -2 19 1 4 3 -2 6 -13 5 -11 0 -14 -3 -6 -6z"/>
<path d="M568 3313 c7 -3 16 -2 19 1 4 3 -2 6 -13 5 -11 0 -14 -3 -6 -6z"/>
<path d="M3690 3316 c0 -2 8 -10 18 -17 15 -13 16 -12 3 4 -13 16 -21 21 -21
13z"/>
<path d="M330 3285 c-54 -9 -65 -13 -40 -14 76 -5 90 -14 90 -61 0 -27 13 -49
85 -145 86 -116 98 -137 111 -183 11 -42 13 -44 13 -15 1 33 21 58 21 26 0
-10 6 -28 13 -39 59 -103 101 -165 120 -181 37 -29 42 -43 48 -138 l5 -90 2
102 c1 56 5 108 8 117 4 10 1 16 -9 16 -31 0 -66 41 -87 105 -18 55 -37 82
-123 178 -128 141 -168 192 -160 201 4 4 -1 4 -11 0 -18 -7 -19 -2 -14 64 3
40 5 71 4 71 0 -1 -35 -7 -76 -14z"/>
<path d="M4081 3255 c0 -22 6 -51 15 -65 13 -21 14 -22 9 -4 -3 12 -10 42 -14
65 l-9 44 -1 -40z"/>
<path d="M155 3260 c-22 -4 -66 -11 -97 -15 -32 -3 -58 -11 -58 -17 0 -13 91
1 215 33 27 6 27 7 5 7 -14 0 -43 -4 -65 -8z"/>
<path d="M1187 3251 c-4 -17 -3 -21 5 -13 5 5 8 16 6 23 -3 8 -7 3 -11 -10z"/>
<path d="M1350 3250 c-23 -5 -23 -7 -6 -13 11 -4 24 -3 30 3 14 14 5 18 -24
10z"/>
<path d="M1536 3246 c3 -8 -2 -28 -11 -45 -22 -43 -13 -39 19 9 31 47 32 50 6
50 -13 0 -17 -5 -14 -14z"/>
<path d="M1618 3253 c6 -2 18 -2 25 0 6 3 1 5 -13 5 -14 0 -19 -2 -12 -5z"/>
<path d="M2103 3244 c21 -26 21 -32 0 -58 -13 -16 -10 -14 12 4 17 14 31 26
33 26 2 1 -12 12 -30 25 -29 20 -31 20 -15 3z"/>
<path d="M2161 3244 c0 -11 3 -14 6 -6 3 7 2 16 -1 19 -3 4 -6 -2 -5 -13z"/>
<path d="M4390 3250 c0 -5 5 -10 10 -10 6 0 10 5 10 10 0 6 -4 10 -10 10 -5 0
-10 -4 -10 -10z"/>
<path d="M1689 3242 c11 -8 11 -16 2 -42 -18 -54 -13 -58 15 -12 29 48 29 47
-6 56 -17 5 -21 4 -11 -2z"/>
<path d="M3330 3221 c0 -4 26 -18 58 -30 90 -33 165 -80 158 -98 -5 -13 -4
-14 9 -3 8 7 15 16 15 20 0 10 -204 120 -223 120 -10 0 -17 -4 -17 -9z"/>
<path d="M4408 3224 c-4 -3 -2 -18 3 -32 21 -54 79 -320 85 -390 4 -45 11 -72
19 -72 21 0 24 12 10 34 -7 11 -18 61 -25 109 -10 84 -64 318 -79 345 -4 7
-10 10 -13 6z"/>
<path d="M3061 3204 c0 -11 3 -14 6 -6 3 7 2 16 -1 19 -3 4 -6 -2 -5 -13z"/>
<path d="M722 3157 c-12 -30 -28 -79 -37 -108 -9 -30 -20 -61 -25 -70 -6 -12
-3 -22 9 -33 17 -16 19 -14 25 42 4 33 18 94 31 138 28 91 26 110 -3 31z"/>
<path d="M2953 3175 c0 -22 2 -30 4 -17 2 12 2 30 0 40 -3 9 -5 -1 -4 -23z"/>
<path d="M1848 3192 c10 -7 10 -15 2 -37 -12 -31 -7 -55 10 -55 7 0 8 6 1 19
-7 13 -6 24 4 37 14 20 4 44 -19 44 -7 0 -6 -3 2 -8z"/>
<path d="M2562 3120 c0 -14 2 -19 5 -12 2 6 2 18 0 25 -3 6 -5 1 -5 -13z"/>
<path d="M4121 3136 c-1 -13 61 -147 66 -142 2 2 -12 37 -31 77 -19 41 -35 70
-35 65z"/>
<path d="M1460 3079 c-12 -23 -20 -43 -18 -45 3 -2 14 17 26 41 27 56 20 60
-8 4z"/>
<path d="M3576 3101 c-4 -6 8 -26 26 -45 29 -30 46 -59 106 -186 25 -51 2 31
-29 106 -30 72 -91 145 -103 125z"/>
<path d="M1646 3085 c-9 -26 -7 -32 5 -12 6 10 9 21 6 23 -2 3 -7 -2 -11 -11z"/>
<path d="M4281 3084 c0 -11 3 -14 6 -6 3 7 2 16 -1 19 -3 4 -6 -2 -5 -13z"/>
<path d="M1957 3073 c-4 -3 -7 -11 -7 -17 0 -6 5 -5 12 2 6 6 9 14 7 17 -3 3
-9 2 -12 -2z"/>
<path d="M2946 3065 c-3 -8 -1 -15 4 -15 6 0 10 7 10 15 0 8 -2 15 -4 15 -2 0
-6 -7 -10 -15z"/>
<path d="M4090 3055 c0 -5 5 -17 10 -25 5 -8 10 -10 10 -5 0 6 -5 17 -10 25
-5 8 -10 11 -10 5z"/>
<path d="M3087 3021 c-4 -17 -3 -21 5 -13 5 5 8 16 6 23 -3 8 -7 3 -11 -10z"/>
<path d="M1417 2985 c-9 -20 -24 -68 -33 -108 -8 -39 -24 -84 -34 -98 -19 -27
-17 -39 6 -39 7 0 17 28 24 68 7 37 23 99 36 137 12 39 21 71 20 72 -1 2 -10
-13 -19 -32z"/>
<path d="M2078 3013 c6 -2 9 -10 6 -15 -4 -7 -2 -8 5 -4 13 9 5 26 -12 25 -9
0 -8 -2 1 -6z"/>
<path d="M4302 2985 c0 -16 2 -22 5 -12 2 9 2 23 0 30 -3 6 -5 -1 -5 -18z"/>
<path d="M2086 2965 c-9 -26 -7 -32 5 -12 6 10 9 21 6 23 -2 3 -7 -2 -11 -11z"/>
<path d="M3098 2974 c-4 -5 0 -20 8 -34 7 -14 13 -18 13 -10 -1 24 -15 54 -21
44z"/>
<path d="M4196 2960 c3 -14 11 -32 16 -40 6 -10 7 -7 2 10 -3 14 -11 32 -16
40 -6 10 -7 7 -2 -10z"/>
<path d="M2570 2936 c0 -15 -7 -26 -17 -28 -13 -3 -11 -5 7 -9 24 -5 25 -3 22
28 -5 38 -12 44 -12 9z"/>
<path d="M2960 2942 c0 -10 -6 -24 -12 -31 -11 -10 -10 -11 5 -6 15 6 26 55
12 55 -3 0 -5 -8 -5 -18z"/>
<path d="M3437 2954 c-11 -11 3 -24 18 -18 8 4 12 10 9 15 -6 11 -18 12 -27 3z"/>
<path d="M3280 2893 l-55 -58 58 55 c31 30 57 56 57 57 0 8 -10 -1 -60 -54z"/>
<path d="M1591 2904 c0 -11 3 -14 6 -6 3 7 2 16 -1 19 -3 4 -6 -2 -5 -13z"/>
<path d="M3130 2881 c0 -6 4 -13 10 -16 6 -3 7 1 4 9 -7 18 -14 21 -14 7z"/>
<path d="M1051 2864 c0 -11 3 -14 6 -6 3 7 2 16 -1 19 -3 4 -6 -2 -5 -13z"/>
<path d="M1610 2839 c-7 -24 -15 -48 -18 -53 -3 -5 11 3 32 19 36 27 36 28 19
49 -10 12 -19 23 -20 25 -1 1 -7 -17 -13 -40z"/>
<path d="M2519 2871 c7 -5 11 -14 7 -20 -5 -7 -1 -9 9 -5 12 5 13 9 4 20 -6 8
-17 14 -23 14 -6 0 -5 -4 3 -9z"/>
<path d="M1581 2854 c0 -11 3 -14 6 -6 3 7 2 16 -1 19 -3 4 -6 -2 -5 -13z"/>
<path d="M4231 2854 c0 -11 3 -14 6 -6 3 7 2 16 -1 19 -3 4 -6 -2 -5 -13z"/>
<path d="M3157 2807 c5 -39 2 -46 -22 -65 -15 -12 -23 -22 -18 -22 6 0 27 18
48 41 l37 41 -23 24 c-12 13 -23 24 -25 24 -1 0 1 -20 3 -43z"/>
<path d="M1986 2827 c3 -10 9 -15 12 -12 3 3 0 11 -7 18 -10 9 -11 8 -5 -6z"/>
<path d="M2643 2833 c9 -2 25 -2 35 0 9 3 1 5 -18 5 -19 0 -27 -2 -17 -5z"/>
<path d="M2387 2805 c3 -16 7 -32 9 -34 2 -2 -2 -11 -8 -20 -9 -12 -7 -12 7 1
18 17 18 19 2 50 l-17 33 7 -30z"/>
<path d="M2543 2822 c-6 -4 -10 -19 -10 -33 l2 -26 43 15 c31 10 42 19 38 29
-3 8 -6 17 -6 19 0 7 -54 4 -67 -4z"/>
<path d="M2723 2823 c9 -2 15 -8 12 -13 -8 -13 14 -23 33 -15 15 6 14 8 -8 20
-14 8 -32 14 -40 13 -10 0 -10 -2 3 -5z"/>
<path d="M4242 2810 c0 -14 4 -36 8 -50 6 -20 8 -21 8 -5 0 11 -4 34 -8 50 -7
27 -8 27 -8 5z"/>
<path d="M1561 2791 c-7 -16 -22 -33 -34 -39 -12 -6 -16 -11 -9 -11 18 -1 62
44 62 64 0 23 -6 18 -19 -14z"/>
<path d="M1654 2805 c-15 -11 -16 -13 -3 -12 27 3 249 -184 256 -215 5 -26 26
-38 71 -38 32 0 27 16 -15 45 -53 36 -160 121 -230 182 -54 47 -62 51 -79 38z"/>
<path d="M1161 2784 c0 -11 3 -14 6 -6 3 7 2 16 -1 19 -3 4 -6 -2 -5 -13z"/>
<path d="M3736 2740 c4 -36 10 -72 15 -80 13 -23 11 15 -6 85 l-14 60 5 -65z"/>
<path d="M1041 2768 c0 -15 -8 -33 -16 -42 -13 -13 -13 -15 6 -21 29 -10 33
-1 22 47 -8 33 -11 37 -12 16z"/>
<path d="M2811 2777 c2 -1 15 -11 29 -22 l25 -20 -19 23 c-11 12 -24 22 -29
22 -6 0 -8 -1 -6 -3z"/>
<path d="M4190 2753 c14 -43 28 -167 23 -196 -4 -19 -1 -27 9 -27 10 0 14 8
12 23 -2 12 -8 68 -15 125 -8 73 -15 102 -25 102 -10 0 -11 -7 -4 -27z"/>
<path d="M2913 2755 c50 -17 51 -19 39 -54 -6 -17 -7 -33 -2 -36 11 -7 20 20
20 60 0 28 -4 33 -31 39 -53 10 -66 6 -26 -9z"/>
<path d="M1150 2741 c0 -11 -7 -26 -15 -34 -12 -13 -12 -15 5 -20 17 -4 20 0
20 34 0 21 -2 39 -5 39 -3 0 -5 -9 -5 -19z"/>
<path d="M2453 2733 c1 -19 6 -28 11 -23 6 6 5 18 -2 32 -10 22 -10 21 -9 -9z"/>
<path d="M2689 2751 c8 -5 10 -14 5 -22 -6 -11 -4 -11 10 0 13 11 14 16 4 22
-7 5 -17 9 -23 9 -5 0 -4 -4 4 -9z"/>
<path d="M3205 2740 c-3 -5 -1 -10 4 -10 6 0 11 5 11 10 0 6 -2 10 -4 10 -3 0
-8 -4 -11 -10z"/>
<path d="M1543 2732 c-17 -11 -13 -132 4 -132 9 0 13 20 13 70 0 39 -1 70 -2
70 -2 0 -8 -4 -15 -8z"/>
<path d="M3068 2705 c2 -14 -2 -33 -9 -43 -7 -9 1 -4 19 12 17 16 31 30 29 31
-1 1 -11 7 -23 13 -19 10 -21 9 -16 -13z"/>
<path d="M1260 2711 c52 -6 56 -8 65 -38 12 -42 31 -42 39 -1 8 42 -3 48 -89
46 l-70 -1 55 -6z"/>
<path d="M2234 2702 c10 -12 16 -28 13 -36 -5 -12 -1 -13 24 -4 16 5 29 12 29
14 0 2 -19 13 -42 25 l-43 22 19 -21z"/>
<path d="M3185 2710 c-11 -5 -18 -9 -15 -10 27 -8 40 -6 40 6 0 8 -1 14 -2 13
-2 0 -12 -4 -23 -9z"/>
<path d="M872 2701 c-9 -5 4 -10 37 -14 60 -7 107 -30 115 -55 4 -11 8 -61 11
-113 9 -192 39 -385 70 -454 36 -80 85 -211 85 -227 0 -11 7 -18 20 -18 28 0
25 21 -9 83 -45 80 -90 201 -118 317 -21 87 -26 136 -29 280 l-4 175 -72 17
c-85 20 -89 20 -106 9z"/>
<path d="M4262 2690 c0 -14 2 -19 5 -12 2 6 2 18 0 25 -3 6 -5 1 -5 -13z"/>
<path d="M2901 2680 c14 -31 19 -36 19 -24 0 6 -7 19 -16 30 -14 18 -14 18 -3
-6z"/>
<path d="M3862 2675 c0 -16 2 -22 5 -12 2 9 2 23 0 30 -3 6 -5 -1 -5 -18z"/>
<path d="M4478 2693 c6 -2 18 -2 25 0 6 3 1 5 -13 5 -14 0 -19 -2 -12 -5z"/>
<path d="M4605 2680 c13 -14 20 -44 25 -107 l7 -88 2 108 1 107 -27 0 c-25 0
-26 0 -8 -20z"/>
<path d="M2485 2680 c-3 -5 -2 -10 3 -10 11 0 42 -65 42 -88 0 -11 9 -17 24
-18 20 -2 23 3 22 26 -2 42 -76 115 -91 90z"/>
<path d="M2794 2668 c23 -35 32 -108 15 -119 -10 -6 -8 -9 10 -9 22 0 23 3 17
41 -8 53 -32 109 -46 109 -6 0 -5 -9 4 -22z"/>
<path d="M3126 2683 c-3 -4 3 -16 13 -27 13 -14 21 -39 24 -76 3 -51 3 -50 5
17 2 62 -1 74 -17 82 -10 6 -21 7 -25 4z"/>
<path d="M2428 2667 c-32 -12 -52 -55 -46 -96 2 -17 1 -28 -4 -25 -4 3 -8 -2
-8 -10 0 -17 9 -20 34 -10 12 4 16 20 16 54 0 33 6 55 21 74 11 14 19 26 17
25 -2 -1 -15 -6 -30 -12z"/>
<path d="M4513 2635 c0 -27 2 -38 4 -22 2 15 2 37 0 50 -2 12 -4 0 -4 -28z"/>
<path d="M1084 2633 c-11 -57 2 -263 20 -313 9 -25 16 -53 16 -63 0 -9 4 -25
10 -35 11 -20 41 -127 39 -139 -1 -4 -1 -10 1 -13 1 -3 3 -15 6 -28 5 -29 39
-95 76 -149 27 -39 83 -81 95 -70 2 3 -17 38 -43 78 -97 151 -167 335 -189
496 -4 29 -11 55 -16 59 -10 6 -12 96 -3 143 5 24 12 31 30 31 33 0 30 16 -6
28 -28 10 -30 10 -36 -25z"/>
<path d="M1973 2660 c2 -8 12 -16 23 -17 13 -2 15 -1 4 4 -8 3 -19 11 -23 17
-6 7 -7 6 -4 -4z"/>
<path d="M2304 2657 c-28 -15 -28 -15 -16 -30 8 -10 7 -21 -4 -42 -17 -33 -13
-41 15 -26 25 14 44 47 36 62 -4 5 -2 16 4 23 16 19 -8 28 -35 13z"/>
<path d="M1204 2628 c-5 -8 -2 -9 9 -5 10 3 17 3 17 -1 0 -5 16 -14 36 -21 50
-18 64 -57 64 -174 0 -51 7 -141 15 -199 16 -113 14 -263 -3 -280 -8 -8 -6
-20 5 -42 15 -28 17 -29 24 -11 12 30 10 291 -2 365 -6 36 -12 129 -13 208 -1
142 -1 143 -25 149 -14 3 -37 6 -53 7 -15 1 -28 4 -28 9 0 12 -38 8 -46 -5z"/>
<path d="M2920 2633 c0 -7 4 -13 10 -13 6 0 6 -9 0 -26 -14 -35 -13 -36 10
-24 11 6 20 15 20 19 0 14 -39 57 -40 44z"/>
<path d="M3059 2623 c-13 -16 -12 -17 4 -4 16 13 21 21 13 21 -2 0 -10 -8 -17
-17z"/>
<path d="M3732 2628 c19 -16 31 -136 19 -191 -7 -28 -6 -37 2 -34 14 4 21 130
12 195 -5 34 -10 42 -28 42 -18 0 -19 -1 -5 -12z"/>
<path d="M3865 2630 c3 -5 8 -10 11 -10 2 0 4 5 4 10 0 6 -5 10 -11 10 -5 0
-7 -4 -4 -10z"/>
<path d="M1961 2617 c2 -1 14 -11 27 -21 22 -19 22 -19 22 2 0 17 -6 22 -27
22 -14 0 -24 -1 -22 -3z"/>
<path d="M3269 2598 c7 -9 10 -22 6 -28 -3 -5 -2 -10 4 -10 20 0 20 18 -2 36
-17 15 -19 15 -8 2z"/>
<path d="M1408 2593 c6 -2 18 -2 25 0 6 3 1 5 -13 5 -14 0 -19 -2 -12 -5z"/>
<path d="M4063 2565 c0 -22 2 -30 4 -17 2 12 2 30 0 40 -3 9 -5 -1 -4 -23z"/>
<path d="M1492 2571 c28 -23 43 -58 53 -131 4 -25 18 -89 32 -143 14 -54 23
-108 21 -121 -4 -19 -1 -22 14 -18 30 8 20 -15 -12 -27 -36 -12 -39 -20 -6
-14 20 4 29 -5 65 -67 22 -39 41 -75 41 -78 0 -4 -17 -22 -37 -40 l-38 -33 51
32 51 33 -50 114 c-57 133 -105 313 -114 425 -5 70 -8 77 -27 77 -12 0 -32 3
-46 7 l-25 6 27 -22z"/>
<path d="M2030 2557 c0 -8 6 -14 13 -15 34 -3 192 -44 216 -57 15 -7 38 -30
52 -49 28 -42 54 -49 45 -11 -15 61 -25 75 -53 75 -16 1 -53 9 -83 20 -30 11
-68 20 -85 20 -16 0 -43 7 -59 15 -35 18 -46 19 -46 2z"/>
<path d="M2305 2546 c-19 -14 -19 -15 -2 -22 22 -8 30 -1 25 21 -3 14 -5 14
-23 1z"/>
<path d="M2526 2539 c-10 -23 9 -64 42 -88 42 -30 46 -15 7 25 -18 18 -35 43
-37 56 -4 18 -6 20 -12 7z"/>
<path d="M2948 2543 c7 -3 16 -2 19 1 4 3 -2 6 -13 5 -11 0 -14 -3 -6 -6z"/>
<path d="M2991 2535 c3 -12 22 -24 52 -35 27 -8 60 -26 74 -38 30 -26 53 -29
53 -4 0 12 -24 27 -78 50 -42 18 -83 36 -91 39 -9 4 -12 0 -10 -12z"/>
<path d="M3290 2546 c0 -2 11 -6 25 -8 13 -3 22 -1 19 3 -5 9 -44 13 -44 5z"/>
<path d="M1773 2529 c10 -6 22 -20 27 -32 l9 -22 0 22 c1 12 -8 27 -18 33 -26
13 -41 13 -18 -1z"/>
<path d="M1985 2490 c8 -16 15 -37 15 -46 0 -10 3 -15 6 -11 12 11 -7 87 -22
87 -12 0 -12 -4 1 -30z"/>
<path d="M2697 2492 c-15 -15 -27 -31 -27 -36 0 -4 12 6 26 21 l25 28 -7 -25
c-21 -74 -16 -77 45 -32 l34 25 -22 18 c-12 10 -29 15 -38 12 -11 -4 -14 -2
-9 5 12 20 1 13 -27 -16z"/>
<path d="M2783 2508 c2 -7 12 -13 22 -13 10 0 20 6 23 13 2 7 -6 12 -23 12
-17 0 -25 -5 -22 -12z"/>
<path d="M2850 2495 c0 -14 2 -25 4 -25 2 0 11 11 20 25 16 24 16 25 -4 25
-15 0 -20 -7 -20 -25z"/>
<path d="M2387 2503 c-17 -4 -16 -23 2 -76 7 -18 8 -18 30 1 20 16 22 23 14
47 -10 31 -18 35 -46 28z"/>
<path d="M3384 2483 c15 -17 25 -36 22 -42 -4 -6 0 -11 8 -11 25 0 19 13 -21
51 -36 32 -37 32 -9 2z"/>
<path d="M3887 2486 c-5 -15 -6 -31 -3 -34 8 -8 18 25 14 45 -3 13 -6 10 -11
-11z"/>
<path d="M475 2480 l-60 -18 47 -1 c62 -1 67 -11 108 -219 17 -90 43 -196 57
-235 31 -89 126 -311 157 -369 40 -72 41 -85 9 -114 -22 -20 -24 -23 -6 -15
12 6 25 15 28 21 11 18 37 -2 32 -26 -2 -14 0 -21 8 -18 6 3 47 -35 90 -83 43
-48 111 -120 151 -159 75 -75 99 -108 89 -124 -15 -24 6 -7 26 21 l21 30 -99
102 c-156 160 -253 298 -353 501 -100 204 -172 451 -195 664 -8 72 -9 72 -110
42z"/>
<path d="M3802 2475 c0 -16 2 -22 5 -12 2 9 2 23 0 30 -3 6 -5 -1 -5 -18z"/>
<path d="M2219 2450 c38 -34 43 -44 39 -73 l-4 -34 28 16 c15 9 28 18 28 21 0
17 -45 73 -72 90 -54 33 -64 23 -19 -20z"/>
<path d="M2951 2481 c-9 -6 -10 -10 -2 -12 8 -3 8 -14 2 -36 -10 -33 -6 -43
16 -43 9 0 13 14 13 44 0 48 -8 60 -29 47z"/>
<path d="M4027 2483 c27 -5 40 -20 46 -53 3 -16 5 -10 6 18 l1 42 -37 -1 c-22
-1 -29 -4 -16 -6z"/>
<path d="M4140 2481 c57 -8 70 -17 70 -44 0 -12 5 -29 10 -37 8 -11 10 -1 8
35 l-3 50 -65 1 c-57 2 -60 1 -20 -5z"/>
<path d="M2510 2476 c0 -4 12 -19 28 -33 21 -20 23 -25 7 -18 -43 16 -58 18
-51 7 7 -11 65 -46 67 -40 7 27 2 41 -22 64 -16 15 -29 24 -29 20z"/>
<path d="M188 2450 c-2 -6 -41 -50 -88 -97 -62 -64 -72 -76 -34 -45 59 48 134
127 134 142 0 13 -7 13 -12 0z"/>
<path d="M388 2453 c7 -3 16 -2 19 1 4 3 -2 6 -13 5 -11 0 -14 -3 -6 -6z"/>
<path d="M2631 2428 c-15 -42 -14 -47 7 -43 9 2 24 4 32 5 10 1 11 3 3 6 -7 3
-9 12 -6 21 5 12 3 14 -7 8 -10 -6 -12 -4 -7 8 3 9 2 19 -2 22 -5 3 -14 -9
-20 -27z"/>
<path d="M2757 2423 c-51 -38 -57 -54 -10 -30 30 16 83 67 67 66 -5 0 -31 -16
-57 -36z"/>
<path d="M3190 2451 c0 -5 60 -30 133 -56 72 -26 141 -52 152 -57 18 -9 19 -9
5 6 -9 9 -54 29 -100 45 -47 16 -109 38 -137 50 -29 11 -53 17 -53 12z"/>
<path d="M4498 2423 c5 -25 6 -25 13 -8 11 29 10 35 -5 35 -9 0 -12 -8 -8 -27z"/>
<path d="M2792 2411 c-11 -16 -34 -35 -50 -42 -24 -11 -27 -15 -17 -26 8 -7
20 -13 28 -13 17 0 77 76 77 97 0 21 -15 15 -38 -16z"/>
<path d="M2428 2412 c-13 -8 -24 -16 -26 -17 -1 -1 1 -10 4 -20 6 -15 8 -16
16 -1 5 9 18 16 29 16 22 0 43 -43 36 -77 -7 -39 18 -32 38 11 l20 41 -47 32
c-44 29 -48 30 -70 15z"/>
<path d="M3153 2422 c-8 -5 -9 -13 -3 -22 7 -12 10 -12 16 3 8 21 3 29 -13 19z"/>
<path d="M3890 2395 c0 -14 2 -25 4 -25 2 0 6 11 8 25 3 14 1 25 -3 25 -5 0
-9 -11 -9 -25z"/>
<path d="M2585 2400 c-3 -5 -1 -10 4 -10 6 0 11 5 11 10 0 6 -2 10 -4 10 -3 0
-8 -4 -11 -10z"/>
<path d="M2860 2385 c-8 -10 -9 -15 -2 -15 6 0 28 -18 48 -40 29 -31 40 -37
51 -29 16 14 8 25 -47 69 -33 26 -39 28 -50 15z"/>
<path d="M802 2370 c0 -14 2 -19 5 -12 2 6 2 18 0 25 -3 6 -5 1 -5 -13z"/>
<path d="M3756 2371 c-4 -7 -5 -15 -2 -18 9 -9 19 4 14 18 -4 11 -6 11 -12 0z"/>
<path d="M2569 2343 c-13 -15 -12 -15 7 -3 27 17 70 6 84 -21 15 -28 6 -49
-22 -50 -13 0 -18 -3 -11 -5 17 -7 93 15 93 27 0 6 -9 24 -21 40 -18 25 -27
29 -68 29 -33 0 -53 -5 -62 -17z"/>
<path d="M4222 2335 c0 -16 4 -41 8 -55 7 -23 8 -22 8 10 0 19 -3 44 -8 55 -7
17 -9 15 -8 -10z"/>
<path d="M2435 2330 c10 -11 20 -20 23 -20 3 0 -3 9 -13 20 -10 11 -20 20 -23
20 -3 0 3 -9 13 -20z"/>
<path d="M2284 2326 c-18 -14 -18 -15 -1 -22 25 -9 37 -44 25 -69 -6 -11 -24
-35 -42 -54 l-31 -34 30 20 c85 58 110 104 81 148 -19 29 -34 31 -62 11z"/>
<path d="M3892 2295 c0 -16 2 -22 5 -12 2 9 2 23 0 30 -3 6 -5 -1 -5 -18z"/>
<path d="M811 2294 c0 -11 3 -14 6 -6 3 7 2 16 -1 19 -3 4 -6 -2 -5 -13z"/>
<path d="M2388 2275 c-6 -29 -7 -29 26 -13 24 10 24 12 8 24 -24 19 -29 17
-34 -11z"/>
<path d="M2776 2287 c-21 -15 -13 -44 15 -52 10 -4 26 -18 34 -33 19 -36 18
-28 -4 36 -22 64 -23 65 -45 49z"/>
<path d="M2060 2272 c9 -19 8 -28 -5 -48 l-16 -25 25 16 c31 21 31 23 5 55
-19 24 -20 24 -9 2z"/>
<path d="M2996 2272 c37 -32 84 -61 84 -53 0 11 -69 61 -84 61 -6 0 -6 -3 0
-8z"/>
<path d="M2442 2252 c-8 -6 -1 -14 25 -28 34 -17 40 -27 52 -77 7 -32 15 -56
17 -54 2 1 0 35 -3 74 -6 69 -7 72 -36 83 -36 12 -38 12 -55 2z"/>
<path d="M3607 2233 c-7 -39 -1 -40 11 -4 6 17 7 31 3 31 -5 0 -11 -12 -14
-27z"/>
<path d="M822 2230 c0 -14 2 -19 5 -12 2 6 2 18 0 25 -3 6 -5 1 -5 -13z"/>
<path d="M2694 2234 c-10 -8 -14 -13 -8 -10 12 6 68 -108 79 -162 4 -18 9 -32
11 -30 5 5 -23 194 -30 207 -10 15 -29 14 -52 -5z"/>
<path d="M2624 2195 c1 -23 2 -24 14 -8 16 22 15 33 -2 33 -9 0 -13 -10 -12
-25z"/>
<path d="M836 2118 c8 -46 17 -94 20 -108 4 -14 7 -28 6 -33 -3 -12 52 -109
78 -140 47 -54 81 -67 199 -77 63 -5 122 -15 138 -24 29 -16 75 -62 132 -131
57 -69 174 -185 234 -233 34 -26 57 -53 57 -64 0 -22 15 -16 31 14 7 12 7 18
1 14 -6 -3 -12 -2 -14 3 -1 5 -37 35 -78 68 -77 61 -176 167 -247 263 -75 101
-79 104 -189 101 -166 -4 -224 31 -290 174 -18 38 -42 108 -55 155 -30 113
-39 120 -23 18z"/>
<path d="M2830 2152 c0 -4 14 -21 32 -38 l31 -29 -22 32 c-23 35 -41 50 -41
35z"/>
<path d="M4720 2153 c0 -6 8 -17 18 -24 16 -13 16 -13 2 6 -8 11 -16 22 -17
24 -2 2 -3 0 -3 -6z"/>
<path d="M2154 2131 c0 -12 6 -17 18 -13 14 3 16 7 7 18 -16 19 -25 17 -25 -5z"/>
<path d="M4201 2134 c0 -11 3 -14 6 -6 3 7 2 16 -1 19 -3 4 -6 -2 -5 -13z"/>
<path d="M3192 2115 c0 -16 2 -22 5 -12 2 9 2 23 0 30 -3 6 -5 -1 -5 -18z"/>
<path d="M1909 2103 c-13 -16 -12 -17 4 -4 9 7 17 15 17 17 0 8 -8 3 -21 -13z"/>
<path d="M3846 2095 c-9 -26 -7 -32 5 -12 6 10 9 21 6 23 -2 3 -7 -2 -11 -11z"/>
<path d="M4191 2094 c0 -11 3 -14 6 -6 3 7 2 16 -1 19 -3 4 -6 -2 -5 -13z"/>
<path d="M4171 2039 c-6 -18 -11 -37 -10 -43 0 -6 7 7 15 28 8 22 12 41 10 43
-2 2 -9 -10 -15 -28z"/>
<path d="M1547 2036 c6 -31 39 -66 61 -66 14 0 13 3 -4 15 -12 8 -27 28 -34
45 -15 36 -29 40 -23 6z"/>
<path d="M2522 2030 c0 -19 2 -27 5 -17 2 9 2 25 0 35 -3 9 -5 1 -5 -18z"/>
<path d="M1789 2003 c-13 -16 -12 -17 4 -4 9 7 17 15 17 17 0 8 -8 3 -21 -13z"/>
<path d="M1950 1986 c0 -2 8 -10 18 -17 15 -13 16 -12 3 4 -13 16 -21 21 -21
13z"/>
<path d="M2506 1973 c-6 -14 -5 -15 5 -6 7 7 10 15 7 18 -3 3 -9 -2 -12 -12z"/>
<path d="M2778 1965 c-3 -14 -1 -25 3 -25 5 0 9 11 9 25 0 14 -2 25 -4 25 -2
0 -6 -11 -8 -25z"/>
<path d="M2479 1933 c-13 -16 -12 -17 4 -4 9 7 17 15 17 17 0 8 -8 3 -21 -13z"/>
<path d="M3414 1928 l-19 -23 23 19 c12 11 22 21 22 23 0 8 -8 2 -26 -19z"/>
<path d="M3764 1918 l-19 -23 23 19 c12 11 22 21 22 23 0 8 -8 2 -26 -19z"/>
<path d="M1694 1884 c-13 -10 -15 -17 -7 -20 23 -10 243 -256 243 -272 0 -9
-15 -32 -32 -51 -32 -35 -26 -30 76 60 4 4 -25 39 -66 78 -41 38 -99 104 -129
145 -30 41 -57 75 -60 76 -3 0 -14 -7 -25 -16z"/>
<path d="M3456 1849 c-11 -21 -23 -39 -28 -39 -4 0 -8 -9 -8 -19 0 -11 -4 -22
-9 -25 -5 -3 -12 -18 -16 -33 -3 -15 -15 -39 -26 -55 -11 -15 -18 -28 -14 -28
12 0 105 155 116 192 14 53 8 55 -15 7z"/>
<path d="M2763 1845 c6 -20 14 -32 18 -28 11 12 -2 63 -16 63 -10 0 -11 -8 -2
-35z"/>
<path d="M4125 1860 c3 -5 8 -10 11 -10 2 0 4 5 4 10 0 6 -5 10 -11 10 -5 0
-7 -4 -4 -10z"/>
<path d="M1544 1838 l-19 -23 23 19 c21 18 27 26 19 26 -2 0 -12 -10 -23 -22z"/>
<path d="M2399 1833 l-24 -28 28 24 c25 23 32 31 24 31 -2 0 -14 -12 -28 -27z"/>
<path d="M2501 1824 c0 -11 3 -14 6 -6 3 7 2 16 -1 19 -3 4 -6 -2 -5 -13z"/>
<path d="M4110 1826 c0 -3 9 -10 20 -16 11 -6 20 -8 20 -6 0 3 -9 10 -20 16
-11 6 -20 8 -20 6z"/>
<path d="M3249 1763 c-13 -16 -12 -17 4 -4 9 7 17 15 17 17 0 8 -8 3 -21 -13z"/>
<path d="M1387 1732 c13 -13 22 -16 31 -9 15 12 14 12 -21 21 -27 6 -27 6 -10
-12z"/>
<path d="M4067 1729 c4 -16 8 -17 14 -7 13 19 11 28 -5 28 -9 0 -12 -7 -9 -21z"/>
<path d="M1474 1715 c16 -9 61 -41 99 -73 137 -113 141 -114 42 -14 -89 91
-103 102 -135 102 l-35 0 29 -15z"/>
<path d="M3170 1623 c-7 -21 -21 -50 -31 -64 -10 -14 -21 -37 -24 -52 -11 -42
-64 -139 -93 -169 -14 -16 -20 -28 -14 -28 15 0 66 69 98 133 30 59 86 208 80
214 -2 2 -10 -13 -16 -34z"/>
<path d="M3665 1650 c-3 -5 0 -10 7 -10 8 0 62 -45 121 -100 118 -112 135
-145 103 -198 -11 -17 -5 -13 18 13 l35 40 -132 133 c-72 72 -135 132 -139
132 -4 0 -10 -4 -13 -10z"/>
<path d="M2136 1633 c-6 -14 -5 -15 5 -6 7 7 10 15 7 18 -3 3 -9 -2 -12 -12z"/>
<path d="M3329 1623 c-13 -16 -12 -17 4 -4 16 13 21 21 13 21 -2 0 -10 -8 -17
-17z"/>
<path d="M1194 1595 c10 -16 27 -39 37 -51 11 -11 19 -24 19 -28 0 -4 16 -26
35 -49 20 -23 33 -47 31 -54 -3 -7 1 -13 9 -13 29 0 23 18 -20 60 -25 24 -45
48 -45 53 0 5 -14 28 -32 51 -42 55 -56 67 -34 31z"/>
<path d="M2176 1609 c9 -15 85 -49 109 -48 11 0 -9 13 -44 29 -71 34 -75 35
-65 19z"/>
<path d="M2790 1606 c0 -2 8 -10 18 -17 15 -13 16 -12 3 4 -13 16 -21 21 -21
13z"/>
<path d="M3289 1573 l-24 -28 28 24 c15 14 27 26 27 28 0 8 -8 1 -31 -24z"/>
<path d="M1983 1579 c-9 -9 -2 -18 25 -37 84 -57 196 -101 393 -156 66 -18 76
-29 94 -93 11 -40 13 -43 14 -18 0 17 -3 48 -7 69 l-7 39 -111 27 c-120 30
-258 89 -335 145 -56 40 -52 38 -66 24z"/>
<path d="M2905 1580 c-3 -5 -2 -10 4 -10 5 0 13 5 16 10 3 6 2 10 -4 10 -5 0
-13 -4 -16 -10z"/>
<path d="M3059 1533 l-24 -28 28 24 c25 23 32 31 24 31 -2 0 -14 -12 -28 -27z"/>
<path d="M3244 1518 l-19 -23 23 19 c21 18 27 26 19 26 -2 0 -12 -10 -23 -22z"/>
<path d="M1720 1526 c0 -2 8 -10 18 -17 15 -13 16 -12 3 4 -13 16 -21 21 -21
13z"/>
<path d="M2568 1493 c6 -2 18 -2 25 0 6 3 1 5 -13 5 -14 0 -19 -2 -12 -5z"/>
<path d="M3423 1479 c-35 -22 -46 -37 -15 -20 22 13 58 40 52 41 -3 0 -20 -10
-37 -21z"/>
<path d="M3201 1470 c-12 -11 -26 -18 -30 -15 -8 4 -34 -66 -27 -72 2 -2 21
22 44 52 23 30 40 55 39 55 -1 -1 -13 -9 -26 -20z"/>
<path d="M1860 1457 c0 -45 414 -229 509 -226 14 0 -12 11 -57 24 -152 43
-280 103 -424 199 -24 16 -28 16 -28 3z"/>
<path d="M3269 1418 c0 -2 -2 -14 -5 -27 -4 -20 -2 -22 11 -11 17 14 20 40 5
40 -5 0 -10 -1 -11 -2z"/>
<path d="M5068 1383 c3 -18 7 -21 13 -11 12 18 11 25 -4 31 -10 4 -13 -2 -9
-20z"/>
<path d="M2567 1366 c34 -15 69 -62 80 -106 6 -23 20 -39 34 -40 4 0 -8 35
-27 78 l-33 77 -43 2 -43 3 32 -14z"/>
<path d="M1290 1347 c0 -40 191 -197 239 -197 24 1 25 1 6 12 -34 19 -187 151
-208 180 -25 34 -37 36 -37 5z"/>
<path d="M3930 1263 c-36 -37 -47 -52 -25 -33 101 89 88 82 129 65 20 -9 42
-26 47 -39 6 -13 22 -30 35 -37 33 -17 358 -453 499 -669 39 -59 83 -124 98
-146 16 -21 55 -79 87 -129 33 -50 77 -116 100 -148 22 -32 49 -72 59 -90 13
-24 26 -33 49 -35 18 -2 32 -1 32 2 0 16 -519 744 -742 1039 -141 189 -165
216 -220 250 -34 20 -67 37 -73 37 -6 0 -40 -30 -75 -67z"/>
<path d="M365 1294 c-58 -30 -75 -44 -56 -44 14 0 121 58 121 66 0 9 -17 3
-65 -22z"/>
<path d="M1750 1301 c0 -14 19 -26 135 -84 119 -60 235 -103 305 -112 33 -4
18 3 -55 28 -123 42 -209 81 -298 135 -68 42 -87 49 -87 33z"/>
<path d="M216 1238 c-16 -15 -26 -28 -24 -28 13 0 68 33 68 40 0 19 -16 14
-44 -12z"/>
<path d="M3109 1243 c-29 -35 -41 -53 -36 -53 2 0 17 16 31 35 28 36 31 49 5
18z"/>
<path d="M2408 1223 c6 -2 18 -2 25 0 6 3 1 5 -13 5 -14 0 -19 -2 -12 -5z"/>
<path d="M3834 1208 l-19 -23 23 19 c21 18 27 26 19 26 -2 0 -12 -10 -23 -22z"/>
<path d="M2468 1213 c6 -2 18 -2 25 0 6 3 1 5 -13 5 -14 0 -19 -2 -12 -5z"/>
<path d="M3965 1193 l-18 -28 27 24 c28 26 31 31 17 31 -5 0 -17 -12 -26 -27z"/>
<path d="M2523 1203 c9 -2 25 -2 35 0 9 3 1 5 -18 5 -19 0 -27 -2 -17 -5z"/>
<path d="M2608 1187 c39 -12 58 -37 66 -87 3 -19 11 -66 17 -104 6 -37 9 -81
7 -97 -3 -15 -1 -26 4 -23 4 3 8 24 8 48 0 48 -27 254 -36 267 -3 5 -26 9 -52
8 l-47 -1 33 -11z"/>
<path d="M1569 1173 c-13 -16 -12 -17 4 -4 16 13 21 21 13 21 -2 0 -10 -8 -17
-17z"/>
<path d="M5001 1183 c-1 -6 -4 -20 -7 -30 -5 -17 -5 -17 6 0 6 10 9 23 6 30
-3 9 -5 9 -5 0z"/>
<path d="M3759 1143 l-34 -38 38 34 c20 19 37 36 37 38 0 8 -8 0 -41 -34z"/>
<path d="M1655 1160 c-3 -6 1 -7 9 -4 18 7 21 14 7 14 -6 0 -13 -4 -16 -10z"/>
<path d="M3790 1137 c-19 -17 -53 -47 -75 -65 l-40 -34 46 32 c42 28 120 100
108 100 -2 0 -20 -15 -39 -33z"/>
<path d="M3709 1143 c-13 -16 -12 -17 4 -4 16 13 21 21 13 21 -2 0 -10 -8 -17
-17z"/>
<path d="M1252 1133 c-7 -14 0 -26 32 -53 22 -19 36 -29 32 -22 -4 7 23 -3 61
-22 38 -20 98 -46 134 -60 72 -27 275 -130 302 -154 19 -17 22 -53 7 -83 -6
-10 -9 -19 -6 -19 5 0 68 111 64 114 -2 2 -19 9 -38 16 -40 15 -183 85 -311
152 -47 25 -118 68 -159 96 -78 55 -104 63 -118 35z"/>
<path d="M4976 1115 c-3 -9 -6 -22 -5 -28 0 -7 5 -1 10 12 5 13 8 26 5 28 -2
2 -6 -3 -10 -12z"/>
<path d="M3659 1093 l-24 -28 28 24 c25 23 32 31 24 31 -2 0 -14 -12 -28 -27z"/>
<path d="M1209 1087 c-8 -7 -13 -11 -11 -10 2 1 24 -7 48 -18 48 -20 50 -12 5
20 -22 16 -31 18 -42 8z"/>
<path d="M2248 1093 c7 -3 16 -2 19 1 4 3 -2 6 -13 5 -11 0 -14 -3 -6 -6z"/>
<path d="M2298 1083 c7 -3 16 -2 19 1 4 3 -2 6 -13 5 -11 0 -14 -3 -6 -6z"/>
<path d="M2368 1073 c7 -3 16 -2 19 1 4 3 -2 6 -13 5 -11 0 -14 -3 -6 -6z"/>
<path d="M4907 1067 c-2 -6 -1 -19 4 -28 5 -9 4 -32 -1 -50 l-9 -34 24 28 c14
15 25 39 25 52 0 27 -35 54 -43 32z"/>
<path d="M5030 1010 c0 -13 5 -18 15 -14 8 4 15 10 15 14 0 4 -7 10 -15 14
-10 4 -15 -1 -15 -14z"/>
<path d="M4948 945 c-5 -6 3 -17 68 -94 47 -55 56 -75 44 -106 l-10 -27 32 28
c18 15 32 32 30 37 -2 6 -33 46 -69 89 -61 72 -81 87 -95 73z"/>
<path d="M3477 914 c-22 -14 -36 -28 -34 -31 5 -5 77 45 77 53 0 6 -2 5 -43
-22z"/>
<path d="M3770 921 c0 -6 24 -37 53 -69 28 -31 59 -68 68 -81 9 -15 18 -21 22
-14 4 6 -22 46 -58 90 -65 77 -85 95 -85 74z"/>
<path d="M4804 858 l-29 -33 33 29 c30 28 37 36 29 36 -2 0 -16 -15 -33 -32z"/>
<path d="M1947 797 c-4 -10 0 -13 12 -10 9 2 48 -3 85 -11 37 -9 82 -16 99
-15 19 0 -3 8 -53 19 -47 10 -97 21 -111 25 -19 4 -28 2 -32 -8z"/>
<path d="M3324 785 c-13 -10 -14 -13 -3 -10 9 4 35 -9 63 -29 52 -41 57 -37
21 17 -28 40 -50 46 -81 22z"/>
<path d="M2248 753 c23 -2 59 -2 80 0 20 2 1 4 -43 4 -44 0 -61 -2 -37 -4z"/>
<path d="M3530 746 c0 -2 7 -7 16 -10 8 -3 12 -2 9 4 -6 10 -25 14 -25 6z"/>
<path d="M1755 648 c-24 -25 -31 -37 -18 -30 18 10 72 73 61 72 -2 -1 -21 -19
-43 -42z"/>
<path d="M2698 613 c7 -3 16 -2 19 1 4 3 -2 6 -13 5 -11 0 -14 -3 -6 -6z"/>
<path d="M2588 603 c6 -2 18 -2 25 0 6 3 1 5 -13 5 -14 0 -19 -2 -12 -5z"/>
<path d="M1810 550 c-20 -6 -16 -8 25 -9 28 -1 88 -10 135 -21 118 -27 145
-24 35 4 -116 30 -164 36 -195 26z"/>
<path d="M0 443 c0 -50 4 -93 9 -95 10 -3 84 -149 96 -187 4 -14 21 -48 37
-75 16 -28 33 -58 37 -66 7 -14 101 -29 101 -16 0 5 -177 344 -239 456 l-41
75 0 -92z"/>
<path d="M2110 496 c0 -2 9 -6 20 -9 11 -3 18 -1 14 4 -5 9 -34 13 -34 5z"/>
<path d="M846 478 c3 -5 10 -6 15 -3 13 9 11 12 -6 12 -8 0 -12 -4 -9 -9z"/>
<path d="M2168 483 c6 -2 18 -2 25 0 6 3 1 5 -13 5 -14 0 -19 -2 -12 -5z"/>
<path d="M2258 473 c7 -3 16 -2 19 1 4 3 -2 6 -13 5 -11 0 -14 -3 -6 -6z"/>
<path d="M1420 447 c-14 -12 -37 -30 -50 -40 -14 -10 -2 -6 25 9 60 33 69 40
58 47 -4 3 -19 -5 -33 -16z"/>
<path d="M2368 463 c12 -2 32 -2 45 0 12 2 2 4 -23 4 -25 0 -35 -2 -22 -4z"/>
<path d="M2508 463 c7 -3 16 -2 19 1 4 3 -2 6 -13 5 -11 0 -14 -3 -6 -6z"/>
<path d="M2619 456 c7 -8 21 -31 32 -52 l20 -39 -6 40 c-8 45 -20 65 -42 65
-12 0 -13 -3 -4 -14z"/>
<path d="M850 392 c6 -13 14 -21 18 -18 3 4 -2 14 -12 24 -18 16 -18 16 -6 -6z"/>
<path d="M437 366 c-7 -18 1 -26 25 -26 12 0 18 7 17 23 0 12 -3 16 -6 9 -4
-9 -9 -10 -18 -2 -9 8 -14 7 -18 -4z"/>
<path d="M2671 334 c0 -11 3 -14 6 -6 3 7 2 16 -1 19 -3 4 -6 -2 -5 -13z"/>
<path d="M406 287 c-5 -29 -4 -64 3 -92 6 -24 11 -78 11 -119 l0 -76 40 0 c27
0 40 4 40 14 0 36 -42 210 -57 239 -10 17 -21 43 -24 57 -5 21 -7 17 -13 -23z"/>
<path d="M3074 255 c-3 -8 -4 -20 -2 -27 3 -7 7 -1 10 15 6 29 1 36 -8 12z"/>
<path d="M2692 210 c0 -14 2 -19 5 -12 2 6 2 18 0 25 -3 6 -5 1 -5 -13z"/>
<path d="M3076 197 c3 -10 9 -15 12 -12 3 3 0 11 -7 18 -10 9 -11 8 -5 -6z"/>
<path d="M772 154 c3 -17 21 -21 26 -6 1 5 -4 12 -13 16 -11 4 -15 1 -13 -10z"/>
<path d="M2701 144 c0 -11 3 -14 6 -6 3 7 2 16 -1 19 -3 4 -6 -2 -5 -13z"/>
<path d="M884 124 c-18 -14 -18 -15 4 -4 12 6 22 13 22 15 0 8 -5 6 -26 -11z"/>
<path d="M760 67 c-67 -34 -120 -67 -107 -67 8 0 154 73 177 89 32 22 -8 10
-70 -22z"/>
<path d="M2710 52 c0 -29 4 -52 10 -52 6 0 7 19 3 48 -8 64 -13 66 -13 4z"/>
<path d="M4164 52 c19 -37 41 -55 61 -50 14 2 12 9 -12 40 -15 21 -36 37 -46
38 -16 0 -16 -2 -3 -28z"/>
</g>
</svg>